<?xml version="1.0" encoding="UTF-8"?>
<svg id="Layer_2" data-name="Layer 2" xmlns="http://www.w3.org/2000/svg" viewBox="0 0 575.15 540.94">
  <defs>
    <style>
      .cls-1 {
        fill: #ca0000;
      }
    </style>
  </defs>
  <g id="Layer_1-2" data-name="Layer 1">
    <g>
      <path fill="#ffffff" d="M319.32,455.42c1.09,1.26-.85,4.71-2.68,6.09l-10.92-11.61-17.92-18.98-12.07-12.99-15.72-16.45L528.17,97.81l2.43.31-227.74,303.22,33.3,47.48-21.62,1.07,4.79,5.53Z"/>
      <g>
        <polygon class="cls-1" points="91.81 540.94 .21 540.94 123.61 398.86 0 256.72 92.04 257.04 218.27 398.91 91.81 540.94"/>
        <polygon class="cls-1" points="145.4 261.58 217.26 314.01 573.28 0 575.15 .07 241.52 371.68 145.4 261.58"/>
      </g>
      <polygon fill="#ffffff" points="265.46 537.4 218.36 484.77 152.49 537.39 241.9 425.53 298.46 488.95 265.46 537.4"/>
    </g>
  </g>
</svg>
